<?xml version="1.0" encoding="utf-8" ?>
<svg baseProfile="full" height="200mm" version="1.1" viewBox="0,0,200,200" width="200mm" xmlns="http://www.w3.org/2000/svg" xmlns:ev="http://www.w3.org/2001/xml-events" xmlns:xlink="http://www.w3.org/1999/xlink"><defs /><rect fill="#1a1a1a" height="200" width="200" x="0" y="0" /><text alignment-baseline="middle" fill="#e1ed5e" style="dominant-baseline: central; font-size:9.0px; font-family:Arial;" text-anchor="middle" x="100.0" y="100.0">2024</text><line stroke="#e1ed5e" stroke-width="0.3" x1="100.0" x2="100.0" y1="15.0" y2="10.0" /><path d="M 100.0 14.0 a86.0,86.0 0 0,1 42.35913384403234,11.155469271406648" fill="none" id="id49" stroke="none" /><text fill="#e1ed5e" style="font-size:6.75px; font-family:Arial;" text-anchor="middle"><textPath startOffset="22.145653131862478" xlink:href="#id49">January</textPath></text><line stroke="#e1ed5e" stroke-width="0.3" x1="143.13028292997686" x2="145.6673583964461" y1="26.7553504044142" y2="22.446841604673864" /><path d="M 143.63769802327073 25.89364864446614 a86.0,86.0 0 0,1 29.32050498858742,28.57503671076993" fill="none" id="id50" stroke="none" /><text fill="#e1ed5e" style="font-size:6.75px; font-family:Arial;" text-anchor="middle"><textPath startOffset="20.669276256404974" xlink:href="#id50">February</textPath></text><path d="M 115.41159269507618 85.73525988315684 l 19.12128897622322 -17.698379612123137 a47.05487157917021,47.05487157917021 0 0,0 0.5436009538903279,0.5975126731963778 l -19.422287630955424 17.367529363369087" fill="red" stroke="none" /><path d="M 115.6541949942343 86.00192230759917 l 13.502511730285411 -12.074029249840308 a39.11353100178136,39.11353100178136 0 0,0 0.4432660775207969,0.504355426987122 l -13.707788871764796 11.840461545041888" fill="red" stroke="none" /><path d="M 115.8921839302757 86.27271002978787 l 16.069604791296694 -13.880541884277873 a42.234444686632564,42.234444686632564 0 0,0 0.46921550250711613,0.5527346821277929 l -16.305514857310925 13.60264041970053" fill="red" stroke="none" /><path d="M 116.57777611688842 87.10902102172516 l 21.803194745168756 -16.95429610928766 a48.61933123117142,48.61933123117142 0 0,0 0.5066783096332317,0.6632581719021455 l -22.091025032156292 16.577517024144633" fill="red" stroke="none" /><path d="M 117.01052211995028 87.68569379921539 l 27.253133055368767 -19.72916663039597 a54.6448105547284,54.6448105547284 0 0,0 0.5435464699320671,0.7645661801487651 l -27.587794623830796 19.2584232235377" fill="red" stroke="none" /><path d="M 117.81537515405839 88.88188828441811 l 32.4789252920558 -20.269251513171433 a59.28476387587031,59.28476387587031 0 0,0 0.5313948467207571,0.8679935462452337 l -32.822088103231955 19.708720850801644" fill="red" stroke="none" /><line stroke="#e1ed5e" stroke-width="0.3" x1="172.87174338648825" x2="177.1583165268699" y1="56.24261187166439" y2="53.66864786411523" /><path d="M 173.72905801456457 55.72781907015455 a86.0,86.0 0 0,1 12.242430191666344,42.057860355516425" fill="none" id="id51" stroke="none" /><text fill="#e1ed5e" style="font-size:6.75px; font-family:Arial;" text-anchor="middle"><textPath startOffset="22.145653131862474" xlink:href="#id51">March</textPath></text><path d="M 118.36410011445183 89.81374322990088 l 36.424596669842956 -20.204109763828352 a62.65281855900701,62.65281855900701 0 0,0 0.5136178130780623,0.9449989260837209 l -36.766059832536364 19.57585600427003" fill="red" stroke="none" /><path d="M 119.0197475246899 91.09779779509293 l 40.96815168896772 -19.175163593684047 a66.23357549050058,66.23357549050058 0 0,0 0.4731459653224188,1.033909323481026 l -41.291282119145194 18.469065287988336" fill="red" stroke="none" /><path d="M 119.31412917781788 91.75594674310238 l 33.14608388967844 -14.148092224522326 a57.03930341745231,57.03930341745231 0 0,0 0.37666082045916605,0.9038488505449119 l -33.38407055467409 13.577010864536136" fill="red" stroke="none" /><path d="M 119.71291397450082 92.76114493625339 l 42.43666049808906 -15.583329543894411 a66.20741436870378,66.20741436870378 0 0,0 0.38261526426743236,1.070242990789464 l -42.69791593240044 14.85255159672403" fill="red" stroke="none" /><path d="M 120.05942366710727 93.78553927170692 l 41.50757752465322 -12.859153619478635 a64.45384705379315,64.45384705379315 0 0,0 0.3183519145877518,1.059689985313791 l -41.7222057592446 12.14472603057412" fill="red" stroke="none" /><path d="M 120.26092885502905 94.47779374421319 l 60.782786565087164 -16.56661876736044 a84.0,84.0 0 0,0 0.3672420767810789,1.3944779825088056 l -61.058218122672976 15.520760280478832" fill="red" stroke="none" /><path d="M 120.82617615685814 97.30363454192243 l 33.702930961047954 -4.363519169092268 a54.98422950287678,54.98422950287678 0 0,0 0.11315731846353264,0.9371049242178012 l -33.77287036577115 3.7843205679510543" fill="red" stroke="none" /><line stroke="#e1ed5e" stroke-width="0.3" x1="184.99686870605535" x2="189.99668451229388" y1="99.2704041080226" y2="99.22748670261217" /><path d="M 185.99683186730306 99.26182062694052 a86.0,86.0 0 0,1 -10.086455211305974,41.156179273409016" fill="none" id="id52" stroke="none" /><text fill="#e1ed5e" style="font-size:6.75px; font-family:Arial;" text-anchor="middle"><textPath startOffset="21.40746469413373" xlink:href="#id52">April</textPath></text><path d="M 120.65975698304385 103.76489593502545 l 12.840321486363743 2.339934308429043 a34.05178717421249,34.05178717421249 0 0,0 -0.10973384249989404,0.5741738330676249 l -12.79826135158169 -2.560010706529982" fill="red" stroke="none" /><line stroke="#e1ed5e" stroke-width="0.3" x1="174.33088141563837" x2="178.70328620479359" y1="141.23008692659167" y2="143.65538615756765" /><path d="M 175.20536237346943 141.71514677278685 a86.0,86.0 0 0,1 -30.301960400862466,31.631185727798858" fill="none" id="id53" stroke="none" /><text fill="#e1ed5e" style="font-size:6.75px; font-family:Arial;" text-anchor="middle"><textPath startOffset="22.145653131862474" xlink:href="#id53">May</textPath></text><path d="M 118.18653347947321 110.5 l 16.480898948937337 9.515251444655988 a40.03050288931198,40.03050288931198 0 0,0 -0.3486967321515023,0.5921632835803098 l -16.31512850665607 -9.796765896529847" fill="red" stroke="none" /><line stroke="#e1ed5e" stroke-width="0.3" x1="143.1302829299769" x2="145.66735839644613" y1="173.24464959558577" y2="177.55315839532614" /><path d="M 143.63769802327073 174.10635135553383 a86.0,86.0 0 0,1 -40.68552437913181,11.842963189579606" fill="none" id="id54" stroke="none" /><text fill="#e1ed5e" style="font-size:6.75px; font-family:Arial;" text-anchor="middle"><textPath startOffset="21.407464694133747" xlink:href="#id54">June</textPath></text><path d="M 108.07796709384702 119.3841803445677 l 10.781688976632774 25.87212860786197 a49.02876836199897,49.02876836199897 0 0,0 -0.7796637365627054,0.31708245418006725 l -10.335970778879629 -26.053398318621333" fill="red" stroke="none" /><path d="M 103.2317021107853 120.74984581791261 l 2.93410171287798 18.839037779226814 a40.06615580835971,40.06615580835971 0 0,0 -0.6805043757929866,0.10001070878637924 l -2.6102722314773077 -18.886629561312077" fill="red" stroke="none" /><line stroke="#e1ed5e" stroke-width="0.3" x1="101.45913802915013" x2="101.54496967792366" y1="184.9874750549273" y2="189.98673829345242" /><path d="M 101.47630435890484 185.9873277026323 a86.0,86.0 0 0,1 -42.54439059252881,-10.42667462771756" fill="none" id="id55" stroke="none" /><text fill="#e1ed5e" style="font-size:6.75px; font-family:Arial;" text-anchor="middle"><textPath startOffset="22.145653131862474" xlink:href="#id55">July</textPath></text><path d="M 97.48249496171623 120.84855314841334 l -2.1020388316357796 17.407896959468726 a38.534350395757045,38.534350395757045 0 0,0 -0.6560421374054477,-0.08493778910829489 l 2.4005587909320214 -17.369247574160035" fill="red" stroke="none" /><line stroke="#e1ed5e" stroke-width="0.3" x1="58.13341422392154" x2="55.670673884152215" y1="173.97424548756322" y2="178.32567169271397" /><path d="M 57.64086615596767 174.84453072859336 a86.0,86.0 0 0,1 -31.369924170532244,-30.572349798747897" fill="none" id="id56" stroke="none" /><text fill="#e1ed5e" style="font-size:6.75px; font-family:Arial;" text-anchor="middle"><textPath startOffset="22.145653131862474" xlink:href="#id56">August</textPath></text><path d="M 89.03521579738668 117.91015095944536 l -15.630702353008461 25.531577600753604 a50.93627082372899,50.93627082372899 0 0,0 -0.7418161315989668,-0.46294813060162654 l 16.06668261339714 -25.25949367331043" fill="red" stroke="none" /><path d="M 88.4268655584334 117.5232005979908 l -16.123002048854346 24.41228005864651 a50.25595003976373,50.25595003976373 0 0,0 -0.7157972001002326,-0.48162030124149935 l 16.539695537051582 -24.131910083347886" fill="red" stroke="none" /><path d="M 87.54013794807813 116.9041958592261 l -13.213158224750899 17.926186792387618 a43.269614347533604,43.269614347533604 0 0,0 -0.5941268556235779,-0.4458438686871552 l 13.518938069285243 -17.696723896436446" fill="red" stroke="none" /><path d="M 84.58840730492382 114.26474011684316 l -10.732573160650007 9.933909489483913 a35.62431825398926,35.62431825398926 0 0,0 -0.4115495959218277,-0.45236509879589437 l 10.901520457413715 -9.748206815130343" fill="red" stroke="none" /><line stroke="#e1ed5e" stroke-width="0.3" x1="26.387840678322732" x2="22.057713659400548" y1="142.50000000000003" y2="145.00000000000006" /><path d="M 25.521815274538298 143.00000000000003 a86.0,86.0 0 0,1 -11.493303480769221,-40.785679425670985" fill="none" id="id57" stroke="none" /><text fill="#e1ed5e" style="font-size:6.75px; font-family:Arial;" text-anchor="middle"><textPath startOffset="21.40746469413373" xlink:href="#id57">September</textPath></text><path d="M 79.64726062577567 105.17358676015961 l -20.97320806504734 5.331307475042872 a42.64020092173857,42.64020092173857 0 0,0 -0.17424100528269557,-0.710962761442243 l 21.061636596846327 -4.97048888899253" fill="red" stroke="none" /><path d="M 79.56144815229197 104.8234425847677 l -19.258553702133057 4.544966235380381 a40.78758723995148,40.78758723995148 0 0,0 -0.1549717354770118,-0.6828340607158864 l 19.333736299167736 -4.213697840725468" fill="red" stroke="none" /><path d="M 79.407916724674 104.11899336999214 l -19.732654880504423 3.947083621331849 a41.12354684808027,41.12354684808027 0 0,0 -0.13252299474847673,-0.6934163074113117 l 19.797504167535056 -3.607764748887223" fill="red" stroke="none" /><path d="M 79.22317932658666 103.0534771498775 l -20.783118183547945 3.0544026670006117 a42.00636515638776,42.00636515638776 0 0,0 -0.09872592666913299,-0.7143316251125051 l 20.832488626772292 -2.697182733688021" fill="red" stroke="none" /><path d="M 79.0935383218832 101.97986365728391 l -21.1464551429335 2.002591287922319 a42.24106722786219,42.24106722786219 0 0,0 -0.06216754101878119,-0.7224810611732281 l 21.177716306650023 -1.639289179373429" fill="red" stroke="none" /><line stroke="#e1ed5e" stroke-width="0.3" x1="15.003131293944662" x2="10.003315487706104" y1="100.72959589197737" y2="100.7725132973878" /><path d="M 14.003168132696942 100.73817937305945 a86.0,86.0 0 0,1 10.791469493833615,-42.45332614584628" fill="none" id="id58" stroke="none" /><text fill="#e1ed5e" style="font-size:6.75px; font-family:Arial;" text-anchor="middle"><textPath startOffset="22.145653131862435" xlink:href="#id58">October</textPath></text><path d="M 79.00696218219943 99.45929381324524 l -19.339191854070588 -0.4981089813245906 a40.34560555076595,40.34560555076595 0 0,0 0.023775690332968377,-0.6922032824908234 l 19.32779147674077 0.8300185283795526" fill="red" stroke="none" /><path d="M 79.01933749520258 99.09900007780938 l -27.074370688093506 -1.1626899711939225 a48.09932464334511,48.09932464334511 0 0,0 0.04250700064728105,-0.8246244567207077 l 27.050422097989657 1.6272862212913424" fill="red" stroke="none" /><line stroke="#e1ed5e" stroke-width="0.3" x1="26.387840678322718" x2="22.05771365940052" y1="57.49999999999999" y2="54.99999999999999" /><path d="M 25.521815274538284 56.99999999999999 a86.0,86.0 0 0,1 29.574782752854787,-30.34633250058573" fill="none" id="id59" stroke="none" /><text fill="#e1ed5e" style="font-size:6.75px; font-family:Arial;" text-anchor="middle"><textPath startOffset="21.40746469413373" xlink:href="#id59">November</textPath></text><path d="M 82.37810715431573 88.57770195909679 l -10.585190779435813 -6.861192776583446 a33.61436602269388,33.61436602269388 0 0,0 0.31801681094679846,-0.48151798459533834 l 10.465849529568288 7.041890639517845" fill="red" stroke="none" /><path d="M 82.78059297857968 87.97951657250589 l -17.48355375782662 -12.204878364175089 a42.32214125943083,42.32214125943083 0 0,0 0.4209741098560382,-0.5921528055446381 l 17.27146454944061 12.503208396429248" fill="red" stroke="none" /><path d="M 85.86807049272753 84.46653392183569 l -14.419854941201866 -15.849946567164857 a42.427856232187224,42.427856232187224 0 0,0 0.5429451812618009,-0.48550492905042836 l 14.145644733116672 16.095147026098687" fill="red" stroke="none" /><path d="M 86.40962598614128 83.9905735841838 l -29.212215186902444 -34.411916037100816 a66.13904608507329,66.13904608507329 0 0,0 0.8718564509712666,-0.7273336600494393 l 28.61718440176927 34.90831188106214" fill="red" stroke="none" /><path d="M 86.68645165197937 83.75963576809568 l -28.594908516290786 -34.881138922786704 a66.103909427075,66.103909427075 0 0,0 0.8837438880075204,-0.7118815192314111 l 27.99191385792802 35.366868735811515" fill="red" stroke="none" /><path d="M 87.25179093698888 83.31218511350988 l -21.949146793186568 -28.732137729358794 a57.15661465690193,57.15661465690193 0 0,0 0.7848066190617884,-0.5889335179884335 l 21.452687185214028 29.10469027461123" fill="red" stroke="none" /><path d="M 87.83215693770416 82.88440491214696 l -22.339709595827344 -31.423599225010232 a59.55522290273996,59.55522290273996 0 0,0 0.8383245826805011,-0.5852156662791258 l 21.796989921973076 31.802459707094485" fill="red" stroke="none" /><line stroke="#e1ed5e" stroke-width="0.3" x1="56.869717070023135" x2="54.33264160355391" y1="26.7553504044142" y2="22.446841604673864" /><path d="M 56.362301976729285 25.89364864446614 a86.0,86.0 0 0,1 42.16139366436587,-11.88097634709845" fill="none" id="id60" stroke="none" /><text fill="#e1ed5e" style="font-size:6.75px; font-family:Arial;" text-anchor="middle"><textPath startOffset="22.145653131862474" xlink:href="#id60">December</textPath></text><path d="M 98.9189461498227 79.02784411241856 l -0.5578627931993221 -10.822389153823421 a31.836757720500675,31.836757720500675 0 0,0 0.5460371427103475,-0.023449184361205595 l 0.37199988988815436 10.830370906610455" fill="red" stroke="none" /></svg>